<svg width="195" height="35" viewBox="0 0 195 35" fill="none" xmlns="http://www.w3.org/2000/svg">
<g clip-path="url(#clip0_1_2)">
<path d="M34.7429 0H3.25714C1.45827 0 0 1.34315 0 3V32C0 33.6569 1.45827 35 3.25714 35H34.7429C36.5417 35 38 33.6569 38 32V3C38 1.34315 36.5417 0 34.7429 0Z" fill="#0788FF"/>
<path d="M8 30L14.7695 5H23.2305L30 30H24.9967L23.5987 24.5H14.4013L13.0033 30H8ZM15.5419 20.1429H22.4581L19.3308 7.96429H18.6692L15.5419 20.1429Z" fill="white"/>
<path d="M42.64 31V3H54.8C56.56 3 58.0933 3.30666 59.4 3.92C60.7067 4.53333 61.72 5.4 62.44 6.52C63.16 7.64 63.52 8.96 63.52 10.48V10.96C63.52 12.64 63.12 14 62.32 15.04C61.52 16.08 60.5333 16.84 59.36 17.32V18.04C60.4267 18.0933 61.2533 18.4667 61.84 19.16C62.4267 19.8267 62.72 20.72 62.72 21.84V31H57.44V22.6C57.44 21.96 57.2667 21.44 56.92 21.04C56.6 20.64 56.0533 20.44 55.28 20.44H47.92V31H42.64ZM47.92 15.64H54.24C55.4933 15.64 56.4667 15.3067 57.16 14.64C57.88 13.9467 58.24 13.04 58.24 11.92V11.52C58.24 10.4 57.8933 9.50667 57.2 8.84C56.5067 8.14667 55.52 7.8 54.24 7.8H47.92V15.64ZM77.6334 31.56C75.4734 31.56 73.5668 31.1733 71.9134 30.4C70.2601 29.6267 68.9668 28.52 68.0334 27.08C67.1001 25.64 66.6334 23.9067 66.6334 21.88V20.76H71.8334V21.88C71.8334 23.56 72.3534 24.8267 73.3934 25.68C74.4334 26.5067 75.8468 26.92 77.6334 26.92C79.4468 26.92 80.7934 26.56 81.6734 25.84C82.5801 25.12 83.0334 24.2 83.0334 23.08C83.0334 22.3067 82.8068 21.68 82.3534 21.2C81.9268 20.72 81.2868 20.3333 80.4334 20.04C79.6068 19.72 78.5934 19.4267 77.3934 19.16L76.4734 18.96C74.5534 18.5333 72.9001 18 71.5134 17.36C70.1534 16.6933 69.1001 15.8267 68.3534 14.76C67.6334 13.6933 67.2734 12.3067 67.2734 10.6C67.2734 8.89333 67.6734 7.44 68.4734 6.24C69.3001 5.01333 70.4468 4.08 71.9134 3.44C73.4068 2.77333 75.1534 2.44 77.1534 2.44C79.1534 2.44 80.9268 2.78667 82.4734 3.48C84.0468 4.14667 85.2734 5.16 86.1534 6.52C87.0601 7.85333 87.5134 9.53333 87.5134 11.56V12.76H82.3134V11.56C82.3134 10.4933 82.1001 9.64 81.6734 9C81.2734 8.33333 80.6868 7.85333 79.9134 7.56C79.1401 7.24 78.2201 7.08 77.1534 7.08C75.5534 7.08 74.3668 7.38666 73.5934 8C72.8468 8.58667 72.4734 9.4 72.4734 10.44C72.4734 11.1333 72.6468 11.72 72.9934 12.2C73.3668 12.68 73.9134 13.08 74.6334 13.4C75.3534 13.72 76.2734 14 77.3934 14.24L78.3134 14.44C80.3134 14.8667 82.0468 15.4133 83.5134 16.08C85.0068 16.7467 86.1668 17.6267 86.9934 18.72C87.8201 19.8133 88.2334 21.2133 88.2334 22.92C88.2334 24.6267 87.7934 26.1333 86.9134 27.44C86.0601 28.72 84.8334 29.7333 83.2334 30.48C81.6601 31.2 79.7934 31.56 77.6334 31.56ZM92.1712 31V3H97.4513V26.2H110.251V31H92.1712ZM111.931 31L119.291 3H128.491L135.851 31H130.411L128.891 24.84H118.891L117.371 31H111.931ZM120.131 19.96H127.651L124.251 6.32H123.531L120.131 19.96ZM139.202 31V3H149.243L154.803 27.4H155.523V3H160.723V31H150.683L145.123 6.6H144.403V31H139.202Z" fill="white"/>
</g>
<defs>
<clipPath id="clip0_1_2">
<rect width="195" height="35" fill="white"/>
</clipPath>
</defs>
</svg>
