<svg width="195" height="35" viewBox="0 0 195 35" fill="none" xmlns="http://www.w3.org/2000/svg">
<g clip-path="url(#clip0_1_2)">
<path d="M34.7429 0H3.25714C1.45827 0 0 1.34315 0 3V32C0 33.6569 1.45827 35 3.25714 35H34.7429C36.5417 35 38 33.6569 38 32V3C38 1.34315 36.5417 0 34.7429 0Z" fill="#0788FF"/>
<path d="M8 30L14.7695 5H23.2305L30 30H24.9967L23.5987 24.5H14.4013L13.0033 30H8ZM15.5419 20.1429H22.4581L19.3308 7.96429H18.6692L15.5419 20.1429Z" fill="white"/>
<path d="M40.97 31L48.33 3H57.53L64.89 31H59.45L57.93 24.84H47.93L46.41 31H40.97ZM49.17 19.96H56.69L53.29 6.32H52.57L49.17 19.96ZM68.2416 31V3H80.4016C82.1616 3 83.6949 3.30666 85.0016 3.92C86.3082 4.53333 87.3216 5.4 88.0416 6.52C88.7616 7.64 89.1216 8.96 89.1216 10.48V10.96C89.1216 12.64 88.7216 14 87.9216 15.04C87.1216 16.08 86.1349 16.84 84.9616 17.32V18.04C86.0282 18.0933 86.8549 18.4667 87.4416 19.16C88.0282 19.8267 88.3216 20.72 88.3216 21.84V31H83.0416V22.6C83.0416 21.96 82.8682 21.44 82.5216 21.04C82.2016 20.64 81.6549 20.44 80.8816 20.44H73.5216V31H68.2416ZM73.5216 15.64H79.8416C81.0949 15.64 82.0682 15.3067 82.7616 14.64C83.4816 13.9467 83.8416 13.04 83.8416 11.92V11.52C83.8416 10.4 83.4949 9.50667 82.8016 8.84C82.1082 8.14667 81.1216 7.8 79.8416 7.8H73.5216V15.64ZM103.235 31.56C101.075 31.56 99.1683 31.1733 97.515 30.4C95.8617 29.6267 94.5683 28.52 93.635 27.08C92.7017 25.64 92.235 23.9067 92.235 21.88V20.76H97.435V21.88C97.435 23.56 97.955 24.8267 98.995 25.68C100.035 26.5067 101.448 26.92 103.235 26.92C105.048 26.92 106.395 26.56 107.275 25.84C108.182 25.12 108.635 24.2 108.635 23.08C108.635 22.3067 108.408 21.68 107.955 21.2C107.528 20.72 106.888 20.3333 106.035 20.04C105.208 19.72 104.195 19.4267 102.995 19.16L102.075 18.96C100.155 18.5333 98.5017 18 97.115 17.36C95.755 16.6933 94.7017 15.8267 93.955 14.76C93.235 13.6933 92.875 12.3067 92.875 10.6C92.875 8.89333 93.275 7.44 94.075 6.24C94.9017 5.01333 96.0483 4.08 97.515 3.44C99.0083 2.77333 100.755 2.44 102.755 2.44C104.755 2.44 106.528 2.78667 108.075 3.48C109.648 4.14667 110.875 5.16 111.755 6.52C112.662 7.85333 113.115 9.53333 113.115 11.56V12.76H107.915V11.56C107.915 10.4933 107.702 9.64 107.275 9C106.875 8.33333 106.288 7.85333 105.515 7.56C104.742 7.24 103.822 7.08 102.755 7.08C101.155 7.08 99.9683 7.38666 99.195 8C98.4483 8.58667 98.075 9.4 98.075 10.44C98.075 11.1333 98.2483 11.72 98.595 12.2C98.9683 12.68 99.515 13.08 100.235 13.4C100.955 13.72 101.875 14 102.995 14.24L103.915 14.44C105.915 14.8667 107.648 15.4133 109.115 16.08C110.608 16.7467 111.768 17.6267 112.595 18.72C113.422 19.8133 113.835 21.2133 113.835 22.92C113.835 24.6267 113.395 26.1333 112.515 27.44C111.662 28.72 110.435 29.7333 108.835 30.48C107.262 31.2 105.395 31.56 103.235 31.56ZM117.773 31V3H123.053V26.2H135.853V31H117.773ZM137.533 31L144.893 3H154.093L161.453 31H156.013L154.493 24.84H144.493L142.973 31H137.533ZM145.733 19.96H153.253L149.853 6.32H149.133L145.733 19.96ZM164.804 31V3H174.844L180.404 27.4H181.124V3H186.324V31H176.284L170.724 6.6H170.004V31H164.804Z" fill="white"/>
</g>
<defs>
<clipPath id="clip0_1_2">
<rect width="195" height="35" fill="white"/>
</clipPath>
</defs>
</svg>
