<svg width="195" height="35" viewBox="0 0 195 35" fill="none" xmlns="http://www.w3.org/2000/svg">
<g clip-path="url(#clip0_1_2)">
<path d="M40 0H3.75C1.67893 0 0 1.34315 0 3V32C0 33.6569 1.67893 35 3.75 35H40C42.071 35 43.7499 33.6569 43.7499 32V3C43.7499 1.34315 42.071 0 40 0Z" fill="#0788FF"/>
<path d="M11 30L17.7695 5H26.2305L33 30H27.9967L26.5987 24.5H17.4013L16.0033 30H11ZM18.5419 20.1429H25.4581L22.3308 7.96429H21.6692L18.5419 20.1429Z" fill="white"/>
<path d="M46.97 31L54.33 3H63.53L70.89 31H65.45L63.93 24.84H53.93L52.41 31H46.97ZM55.17 19.96H62.69L59.29 6.32H58.57L55.17 19.96ZM74.2415 31V3H86.4015C88.1615 3 89.6949 3.30666 91.0015 3.92C92.3082 4.53333 93.3215 5.4 94.0415 6.52C94.7615 7.64 95.1215 8.96 95.1215 10.48V10.96C95.1215 12.64 94.7215 14 93.9215 15.04C93.1215 16.08 92.1349 16.84 90.9615 17.32V18.04C92.0282 18.0933 92.8549 18.4667 93.4415 19.16C94.0282 19.8267 94.3215 20.72 94.3215 21.84V31H89.0415V22.6C89.0415 21.96 88.8682 21.44 88.5215 21.04C88.2015 20.64 87.6549 20.44 86.8815 20.44H79.5215V31H74.2415ZM79.5215 15.64H85.8415C87.0949 15.64 88.0682 15.3067 88.7615 14.64C89.4815 13.9467 89.8415 13.04 89.8415 11.92V11.52C89.8415 10.4 89.4949 9.50667 88.8015 8.84C88.1082 8.14667 87.1215 7.8 85.8415 7.8H79.5215V15.64ZM109.235 31.56C107.075 31.56 105.168 31.1733 103.515 30.4C101.862 29.6267 100.568 28.52 99.635 27.08C98.7016 25.64 98.235 23.9067 98.235 21.88V20.76H103.435V21.88C103.435 23.56 103.955 24.8267 104.995 25.68C106.035 26.5067 107.448 26.92 109.235 26.92C111.048 26.92 112.395 26.56 113.275 25.84C114.182 25.12 114.635 24.2 114.635 23.08C114.635 22.3067 114.408 21.68 113.955 21.2C113.528 20.72 112.888 20.3333 112.035 20.04C111.208 19.72 110.195 19.4267 108.995 19.16L108.075 18.96C106.155 18.5333 104.502 18 103.115 17.36C101.755 16.6933 100.702 15.8267 99.955 14.76C99.235 13.6933 98.875 12.3067 98.875 10.6C98.875 8.89333 99.275 7.44 100.075 6.24C100.902 5.01333 102.048 4.08 103.515 3.44C105.008 2.77333 106.755 2.44 108.755 2.44C110.755 2.44 112.528 2.78667 114.075 3.48C115.648 4.14667 116.875 5.16 117.755 6.52C118.662 7.85333 119.115 9.53333 119.115 11.56V12.76H113.915V11.56C113.915 10.4933 113.702 9.64 113.275 9C112.875 8.33333 112.288 7.85333 111.515 7.56C110.742 7.24 109.822 7.08 108.755 7.08C107.155 7.08 105.968 7.38666 105.195 8C104.448 8.58667 104.075 9.4 104.075 10.44C104.075 11.1333 104.248 11.72 104.595 12.2C104.968 12.68 105.515 13.08 106.235 13.4C106.955 13.72 107.875 14 108.995 14.24L109.915 14.44C111.915 14.8667 113.648 15.4133 115.115 16.08C116.608 16.7467 117.768 17.6267 118.595 18.72C119.422 19.8133 119.835 21.2133 119.835 22.92C119.835 24.6267 119.395 26.1333 118.515 27.44C117.662 28.72 116.435 29.7333 114.835 30.48C113.262 31.2 111.395 31.56 109.235 31.56ZM123.773 31V3H129.053V26.2H141.853V31H123.773ZM143.532 31L150.892 3H160.092L167.452 31H162.012L160.492 24.84H150.492L148.972 31H143.532ZM151.732 19.96H159.252L155.852 6.32H155.132L151.732 19.96ZM170.804 31V3H180.844L186.404 27.4H187.124V3H192.324V31H182.284L176.724 6.6H176.004V31H170.804Z" fill="white"/>
</g>
<defs>
<clipPath id="clip0_1_2">
<rect width="195" height="35" fill="white"/>
</clipPath>
</defs>
</svg>
