<svg width="30" height="30" viewBox="0 0 30 30" fill="none" xmlns="http://www.w3.org/2000/svg">
<path d="M8.45621 14.4131C8.45621 14.7825 8.49371 15.0825 8.56496 15.3037C8.64371 15.5231 8.74496 15.7631 8.88371 16.0237C8.92799 16.0926 8.95203 16.1725 8.95309 16.2544C8.95309 16.3537 8.89309 16.455 8.76559 16.5544L8.13559 16.9744C8.05996 17.029 7.97002 17.0603 7.87684 17.0644C7.77559 17.0644 7.67621 17.0156 7.57684 16.9256C7.44207 16.7806 7.32152 16.623 7.21684 16.455C7.10529 16.2627 7.00207 16.0656 6.90746 15.8644C6.12934 16.785 5.15246 17.2463 3.97496 17.2463C3.13684 17.2463 2.46746 17.0044 1.97996 16.5244C1.49059 16.0444 1.24121 15.4031 1.24121 14.6025C1.24121 13.7513 1.54121 13.0613 2.14871 12.54C2.75809 12.0188 3.56621 11.76 4.59371 11.76C4.93121 11.76 5.28184 11.79 5.65121 11.8388C6.02059 11.8894 6.40121 11.97 6.79871 12.06V11.3288C6.79871 10.5675 6.63934 10.0369 6.32996 9.7275C6.01121 9.41625 5.47121 9.26625 4.70246 9.26625C4.35371 9.26625 3.99559 9.3075 3.62621 9.3975C3.25922 9.48484 2.89893 9.59825 2.54809 9.73688C2.43481 9.78816 2.31832 9.832 2.19934 9.86813C2.14778 9.88516 2.09418 9.89525 2.03996 9.89812C1.89934 9.89812 1.82996 9.79688 1.82996 9.58688V9.09563C1.82996 8.93625 1.84871 8.81438 1.89934 8.74688C1.97489 8.65488 2.07131 8.58224 2.18059 8.535C2.52746 8.355 2.94746 8.205 3.43684 8.085C3.92434 7.95375 4.44371 7.89563 4.99309 7.89563C6.17996 7.89563 7.04809 8.16563 7.60684 8.70563C8.15621 9.24563 8.43559 10.0669 8.43559 11.1694V14.4131H8.45434H8.45621ZM4.40434 15.9338C4.73246 15.9338 5.07184 15.8738 5.43184 15.7538C5.78996 15.6338 6.11059 15.4125 6.37871 15.1125C6.53949 14.9283 6.65562 14.7095 6.71809 14.4731C6.77809 14.2313 6.81934 13.9425 6.81934 13.6013V13.1813C6.51649 13.1078 6.20976 13.0515 5.90059 13.0125C5.58969 12.9723 5.27657 12.9516 4.96309 12.9506C4.29371 12.9506 3.80434 13.0819 3.47621 13.3519C3.14621 13.6219 2.98871 14.0025 2.98871 14.5031C2.98871 14.9719 3.10684 15.3225 3.35621 15.5644C3.59621 15.8137 3.94496 15.9338 4.40434 15.9338ZM12.4162 17.0156C12.2362 17.0156 12.1162 16.9856 12.0375 16.9144C11.9568 16.8544 11.8875 16.7156 11.8275 16.5244L9.48371 8.78625C9.43749 8.65656 9.40665 8.52189 9.39184 8.385C9.39184 8.22563 9.47246 8.13563 9.63184 8.13563H10.6106C10.7981 8.13563 10.9293 8.16563 10.9987 8.235C11.0793 8.295 11.1393 8.43563 11.1993 8.625L12.8756 15.2531L14.4318 8.625C14.4806 8.42625 14.5406 8.295 14.6193 8.235C14.7396 8.16131 14.8798 8.1266 15.0206 8.13563H15.8175C16.0087 8.13563 16.1362 8.16563 16.2168 8.235C16.2975 8.295 16.3668 8.43563 16.4062 8.625L17.9831 15.3338L19.7081 8.625C19.7401 8.47983 19.8092 8.34544 19.9087 8.235C20.0249 8.16137 20.1615 8.12657 20.2987 8.13563H21.2268C21.3862 8.13563 21.4762 8.21625 21.4762 8.385C21.4762 8.43563 21.465 8.48625 21.4575 8.54625C21.4413 8.63137 21.4175 8.71484 21.3862 8.79563L18.9806 16.5338C18.9206 16.7344 18.8512 16.8656 18.7725 16.9256C18.6592 16.998 18.526 17.0328 18.3918 17.025H17.535C17.3456 17.025 17.2162 16.995 17.1356 16.9256C17.055 16.8544 16.9856 16.725 16.9462 16.5244L15.3993 10.0688L13.8618 16.5169C13.8131 16.7175 13.7531 16.8469 13.6743 16.9163C13.5937 16.9875 13.4531 17.0175 13.275 17.0175H12.4162V17.0156ZM25.2375 17.2856C24.7197 17.2863 24.2036 17.2259 23.7 17.1056C23.2012 16.9856 22.8131 16.8544 22.5525 16.7044C22.3931 16.6144 22.2843 16.515 22.2431 16.4231C22.205 16.3349 22.1852 16.2399 22.185 16.1437V15.6338C22.185 15.4238 22.2637 15.3225 22.4137 15.3225C22.4749 15.3226 22.5357 15.3328 22.5937 15.3525C22.6537 15.3731 22.7437 15.4125 22.8431 15.4537C23.1806 15.6037 23.5518 15.7238 23.94 15.8044C24.3393 15.8831 24.7275 15.9244 25.1268 15.9244C25.7568 15.9244 26.2443 15.8138 26.5837 15.5944C26.7467 15.4957 26.8807 15.3555 26.9719 15.1882C27.0632 15.0209 27.1084 14.8324 27.1031 14.6419C27.1065 14.5133 27.0843 14.3852 27.038 14.2652C26.9917 14.1452 26.922 14.0355 26.8331 13.9425C26.655 13.7513 26.3156 13.5806 25.8262 13.4213L24.3787 12.9713C23.6512 12.7406 23.1112 12.3994 22.7831 11.9494C22.4619 11.5336 22.2866 11.0235 22.2843 10.4981C22.2843 10.0781 22.3743 9.70688 22.5525 9.38625C22.7325 9.0675 22.9725 8.78625 23.2725 8.565C23.5725 8.33625 23.91 8.16563 24.3093 8.04563C24.7087 7.92563 25.1268 7.875 25.5656 7.875C25.7868 7.875 26.0156 7.88438 26.235 7.91438C26.4637 7.94438 26.6737 7.98563 26.8837 8.02688C27.0825 8.07563 27.2737 8.12438 27.4518 8.18625C27.6318 8.24625 27.7706 8.30625 27.8718 8.36625C27.9896 8.42537 28.0922 8.51068 28.1718 8.61562C28.236 8.71325 28.2669 8.829 28.26 8.94563V9.41625C28.26 9.62625 28.1812 9.73688 28.0312 9.73688C27.8984 9.72171 27.7698 9.68096 27.6525 9.61688C27.0495 9.34955 26.3957 9.21647 25.7362 9.22688C25.1681 9.22688 24.7181 9.31688 24.4087 9.50813C24.0993 9.69563 23.94 9.98813 23.94 10.3988C23.94 10.6781 24.0393 10.9181 24.24 11.1094C24.4387 11.2988 24.8081 11.4881 25.3368 11.6588L26.7543 12.1088C27.4725 12.3394 27.9918 12.66 28.3012 13.0706C28.6106 13.4813 28.7587 13.9519 28.7587 14.4731C28.7587 14.9044 28.6706 15.2925 28.5 15.6338C28.3233 15.9762 28.0752 16.2767 27.7725 16.515C27.4631 16.7644 27.0937 16.9463 26.6643 17.0756C26.2143 17.2163 25.7456 17.2856 25.2375 17.2856Z" fill="#252F3E"/>
<path fill-rule="evenodd" clip-rule="evenodd" d="M27.1217 22.1502C23.8405 24.582 19.0705 25.8739 14.9699 25.8739C9.22299 25.8739 4.04424 23.742 0.132994 20.1983C-0.176381 19.917 0.102994 19.5364 0.470494 19.7577C4.70237 22.2195 9.92049 23.712 15.3205 23.712C18.9599 23.712 22.9611 22.9508 26.6436 21.3889C27.193 21.1395 27.6617 21.7489 27.1217 22.1502Z" fill="#FF9900"/>
<path fill-rule="evenodd" clip-rule="evenodd" d="M28.4887 20.5891C28.0706 20.0509 25.7156 20.3303 24.6487 20.4597C24.33 20.5009 24.2793 20.2197 24.5681 20.0097C26.4431 18.6878 29.5275 19.0684 29.8856 19.5091C30.2456 19.9591 29.7862 23.0528 28.0293 24.5341C27.7612 24.7647 27.5025 24.6466 27.6206 24.3466C28.02 23.3528 28.9087 21.1216 28.4887 20.5909V20.5891Z" fill="#FF9900"/>
</svg>
