<svg width="30" height="30" viewBox="0 0 30 30" fill="none" xmlns="http://www.w3.org/2000/svg">
<path d="M14.0434 24.3683C17.3903 23.6877 20.154 23.1242 20.1859 23.1167L20.244 23.1027L17.0846 18.7761C15.3465 16.3967 13.9253 14.4402 13.9253 14.4289C13.9253 14.4177 17.1878 4.06393 17.2065 4.02737C17.2131 4.01518 19.4331 8.42799 22.5887 14.7252L28.0018 25.5261L28.0431 25.6086H18.0015H7.95996L14.0434 24.3683Z" fill="#0089D6"/>
<path d="M1.99219 23.05C1.99219 23.0444 3.48094 20.0688 5.30062 16.4378L8.60906 9.83688L12.4688 6.11313C14.5894 4.06469 16.3303 2.38563 16.3369 2.38281C16.323 2.44492 16.3022 2.5053 16.275 2.56281L12.0844 12.8997L7.96875 23.0528H4.97906C3.3375 23.0631 1.99219 23.0566 1.99219 23.05Z" fill="#0089D6"/>
</svg>
