<svg width="30" height="30" viewBox="0 0 30 30" fill="none" xmlns="http://www.w3.org/2000/svg">
<path d="M15.0002 22.8893V27.8618C23.4283 27.8618 29.9777 19.7243 27.2214 10.8874C26.6191 8.98036 25.5663 7.24644 24.1522 5.8323C22.738 4.41816 21.0041 3.36538 19.0971 2.76301C10.2752 0.00676239 2.1377 6.56926 2.1377 14.9843H7.1102C7.1102 9.70614 12.3452 5.62239 17.9027 7.63426C18.9234 8.00661 19.8503 8.59762 20.6186 9.36588C21.3868 10.1341 21.9778 11.0611 22.3502 12.0818C24.3752 17.6336 20.2877 22.863 15.0152 22.8743V17.9299H10.0558V22.8893H15.0002Z" fill="#0080FF"/>
<path d="M10.0554 26.7097H6.23414V22.8903H10.0554V26.7097ZM3.04102 22.8903H6.23414V19.6953H3.04102V22.8903Z" fill="#0080FF"/>
</svg>
