<svg width="60" height="60" viewBox="0 0 60 60" fill="none" xmlns="http://www.w3.org/2000/svg">
<path d="M10.875 46.125L11.1937 45.6806L26.2312 17.1544L26.2631 16.8525L19.635 4.40251C19.5137 4.17484 19.3238 3.99109 19.0923 3.87726C18.8608 3.76342 18.5993 3.72526 18.3449 3.76818C18.0905 3.81109 17.8561 3.93291 17.6747 4.1164C17.4934 4.29989 17.3743 4.53576 17.3344 4.79064L10.875 46.125Z" fill="#FFC24A"/>
<path d="M11.0625 45.7875L11.3025 45.3188L26.1844 17.0888L19.5731 4.59001C19.4641 4.37264 19.2876 4.19646 19.07 4.08784C18.8524 3.97923 18.6055 3.94404 18.3663 3.98754C18.127 4.03104 17.9083 4.15089 17.7429 4.32914C17.5775 4.50738 17.4743 4.73443 17.4487 4.97626L11.0625 45.7875Z" fill="#FFA712"/>
<path d="M31.095 26.2687L36.03 21.2062L31.0931 11.7919C30.9844 11.5893 30.8229 11.4199 30.6256 11.3018C30.4283 11.1838 30.2027 11.1214 29.9728 11.1214C29.7429 11.1214 29.5173 11.1838 29.32 11.3018C29.1227 11.4199 28.9611 11.5893 28.8525 11.7919L26.2144 16.8206V17.25L31.095 26.2687Z" fill="#F4BD62"/>
<path d="M31.0069 26.0625L35.8051 21.15L31.0069 12C30.9284 11.802 30.7943 11.6308 30.6207 11.5073C30.4471 11.3838 30.2415 11.3131 30.0286 11.3038C29.8157 11.2944 29.6047 11.3469 29.421 11.4548C29.2373 11.5627 29.0887 11.7214 28.9932 11.9119L26.3419 17.0288L26.2632 17.2894L31.0069 26.0625Z" fill="#FFA50E"/>
<path d="M10.8789 46.1269L11.0233 45.9806L11.5464 45.7688L30.7839 26.6025L31.0277 25.9388L26.2295 16.7925L10.8789 46.1269Z" fill="#F6820C"/>
<path d="M31.71 55.7925L49.125 46.0819L44.1487 15.4613C44.1131 15.2454 44.0186 15.0435 43.8757 14.8779C43.7329 14.7122 43.5471 14.589 43.3388 14.522C43.1306 14.455 42.9079 14.4466 42.6952 14.4979C42.4825 14.5491 42.288 14.658 42.1331 14.8125L10.875 46.125L28.1869 55.7906C28.7251 56.091 29.3312 56.2486 29.9475 56.2486C30.5638 56.2486 31.1699 56.091 31.7081 55.7906" fill="#FDE068"/>
<path d="M48.9656 46.0012L44.0306 15.6112C44.0219 15.4048 43.9521 15.2055 43.8302 15.0387C43.7082 14.8719 43.5394 14.7451 43.3453 14.6742C43.1512 14.6034 42.9404 14.5917 42.7397 14.6407C42.5389 14.6896 42.3572 14.7971 42.2175 14.9494L11.0625 46.0669L28.1831 55.6294C28.7171 55.9272 29.3183 56.0836 29.9297 56.0836C30.5411 56.0836 31.1423 55.9272 31.6762 55.6294L48.9656 46.0012Z" fill="#FCCA3F"/>
<path d="M31.71 55.5C31.1718 55.8004 30.5657 55.958 29.9494 55.958C29.333 55.958 28.727 55.8004 28.1888 55.5L11.0175 45.9788L10.875 46.125L28.1869 55.7906C28.7251 56.091 29.3312 56.2486 29.9475 56.2486C30.5638 56.2486 31.1699 56.091 31.7081 55.7906L49.125 46.0819L49.0819 45.8194L31.71 55.5Z" fill="#EEAB37"/>
</svg>
