<svg width="30" height="30" viewBox="0 0 30 30" fill="none" xmlns="http://www.w3.org/2000/svg">
<path d="M19.9514 9.58811L22.5591 6.98034L22.7329 5.88229C17.9809 1.56123 10.4268 2.0512 6.14305 6.90463C4.95313 8.25264 4.07035 9.93323 3.59961 11.6687L4.53359 11.5371L9.74902 10.677L10.1517 10.2652C12.4716 7.71733 16.3943 7.37455 19.0729 9.54241L19.9514 9.58811Z" fill="#EA4335"/>
<path d="M26.2743 11.5924C25.6748 9.38508 24.4443 7.40074 22.7332 5.88281L19.0732 9.54281C20.6187 10.8056 21.4991 12.708 21.4614 14.7034V15.3531C23.2603 15.3531 24.7188 16.8115 24.7188 18.6104C24.7188 20.4095 23.2603 21.8313 21.4614 21.8313H14.9374L14.2969 22.5267V26.4337L14.9374 27.0468H21.4614C26.1407 27.0832 29.9636 23.3561 30 18.6768C30.022 15.8405 28.6236 13.1815 26.2743 11.5924Z" fill="#4285F4"/>
<path d="M8.4225 27.0473H14.9373V21.8318H8.4225C7.95832 21.8317 7.50879 21.732 7.08668 21.5391L6.16242 21.8227L3.53637 24.4304L3.30762 25.318C4.78031 26.43 6.57715 27.0553 8.4225 27.0473Z" fill="#34A853"/>
<path d="M8.4223 10.129C3.74289 10.1569 -0.0277369 13.9729 0.000153734 18.6522C0.0157397 21.2653 1.23613 23.7251 3.30742 25.318L7.08648 21.539C5.44691 20.7983 4.71836 18.8688 5.4591 17.2294C6.19972 15.5899 8.12933 14.8613 9.76867 15.602C10.4911 15.9283 11.0697 16.507 11.3961 17.2294L15.1751 13.4504C13.5672 11.3484 11.0687 10.1195 8.4223 10.129Z" fill="#FBBC05"/>
</svg>
