<svg width="60" height="60" viewBox="0 0 60 60" fill="none" xmlns="http://www.w3.org/2000/svg">
<path d="M27.5538 0.761731C29.0351 -0.0861415 30.9644 -0.0899712 32.4444 0.761731C39.8902 4.96897 47.3383 9.1696 54.7827 13.3794C56.183 14.1681 57.1196 15.7264 57.1053 17.3398V42.6522C57.1157 44.3324 56.0866 45.9279 54.6093 46.6988C47.1881 50.8828 39.7706 55.0719 32.3506 59.256C30.8387 60.1205 28.8706 60.0539 27.4059 59.1185C25.181 57.8288 22.9523 56.5453 20.7272 55.2568C20.2725 54.9858 19.76 54.77 19.4389 54.3292C19.7227 53.9466 20.2302 53.899 20.6425 53.7319C21.5712 53.4366 22.4242 52.9626 23.2774 52.5026C23.4932 52.3549 23.7566 52.4115 23.9634 52.5436C25.8659 53.6345 27.7517 54.7571 29.6606 55.8375C30.0678 56.0726 30.4802 55.7605 30.8283 55.5664C38.1108 51.4505 45.4023 47.35 52.6836 43.2328C52.9534 43.103 53.1025 42.8166 53.0806 42.5211C53.0857 34.1711 53.0819 25.8196 53.0832 17.4696C53.114 17.1343 52.92 16.826 52.6168 16.6888C45.2213 12.5239 37.8295 8.35258 30.4353 4.18662C30.3072 4.09855 30.1554 4.05129 30 4.05107C29.8445 4.05084 29.6926 4.09765 29.5642 4.18535C22.17 8.35258 14.7795 12.5277 7.38529 16.6924C7.08316 16.8298 6.8804 17.133 6.91635 17.4696C6.91763 25.8196 6.91635 34.1711 6.91635 42.5224C6.90353 42.6666 6.9352 42.8112 7.0071 42.9369C7.079 43.0625 7.18767 43.1631 7.31848 43.2251C9.29167 44.3441 11.2674 45.4551 13.2419 46.5702C14.3542 47.169 15.72 47.5247 16.9455 47.066C18.027 46.6781 18.7851 45.5745 18.7644 44.4262C18.7747 36.1249 18.7593 27.8224 18.7721 19.5224C18.7451 19.1539 19.0947 18.8494 19.453 18.8841C20.401 18.8777 21.3504 18.8713 22.2985 18.8866C22.6942 18.8777 22.9666 19.2745 22.9176 19.6458C22.9138 27.9996 22.9278 36.3536 22.9112 44.7075C22.9138 46.9339 21.9991 49.3564 19.9398 50.4458C17.4027 51.76 14.267 51.4813 11.7606 50.2211C9.59082 49.1381 7.52018 47.86 5.38891 46.6998C3.90784 45.9332 2.8838 44.3313 2.89423 42.6524V17.3398C2.87869 15.693 3.85252 14.1064 5.29635 13.3292C12.7164 9.14173 20.1351 4.95109 27.5538 0.761731Z" fill="#8CC84B"/>
<path d="M34.027 18.2958C37.2631 18.0875 40.7276 18.1724 43.6397 19.7666C45.8944 20.9883 47.1444 23.5524 47.1842 26.0573C47.1212 26.3951 46.768 26.5815 46.4455 26.5583C45.5066 26.557 44.5674 26.5711 43.6285 26.5519C43.2302 26.5673 42.9987 26.2 42.9487 25.8479C42.6789 24.6494 42.0253 23.4624 40.8972 22.8843C39.1655 22.0173 37.1576 22.0609 35.2693 22.079C33.8908 22.1521 32.4085 22.2715 31.2406 23.0821C30.344 23.6962 30.0717 24.9358 30.3917 25.9341C30.6934 26.6509 31.5208 26.8821 32.1978 27.0953C36.0978 28.1153 40.2306 28.0138 44.0561 29.3562C45.64 29.9034 47.1893 30.9673 47.7315 32.6255C48.4406 34.8481 48.1297 37.5047 46.5485 39.289C45.2661 40.7573 43.3985 41.5564 41.5357 41.9904C39.0576 42.543 36.4859 42.557 33.9693 42.3117C31.6029 42.0419 29.1404 41.4202 27.3136 39.8079C25.7514 38.4515 24.9885 36.3381 25.0642 34.2983C25.0823 33.9538 25.4253 33.7136 25.7553 33.7419C26.7008 33.7343 27.6463 33.7317 28.5919 33.7432C28.9695 33.7162 29.2495 34.0426 29.2689 34.3985C29.4434 35.5404 29.8725 36.739 30.8683 37.416C32.79 38.6558 35.2012 38.5709 37.4017 38.6055C39.2246 38.5247 41.271 38.5002 42.7587 37.2953C43.5436 36.6081 43.7761 35.4583 43.564 34.4692C43.3342 33.6341 42.4606 33.2449 41.7104 32.9904C37.8604 31.7726 33.6814 32.2145 29.8687 30.8373C28.3208 30.2902 26.824 29.256 26.2293 27.6658C25.3995 25.4151 25.7797 22.6313 27.5268 20.9073C29.2302 19.1924 31.6891 18.5321 34.027 18.2958Z" fill="#8CC84B"/>
</svg>
