<svg width="60" height="60" viewBox="0 0 60 60" fill="none" xmlns="http://www.w3.org/2000/svg">
<g clip-path="url(#clip0_515_835)">
<path d="M49.8159 11.7038C49.7719 11.4384 49.5553 11.235 49.2872 11.2097C49.0763 11.175 44.4403 10.8572 44.4403 10.8572L40.9059 7.32281C40.5872 6.97031 39.8822 7.07344 39.6159 7.14656C39.5812 7.14656 38.9109 7.3575 37.8141 7.71375C36.7481 4.62937 34.8609 1.80187 31.5366 1.80187H31.2525C30.3 0.567188 29.1337 0 28.1494 0C20.4094 0.0346875 16.7212 9.68719 15.555 14.6194L10.1456 16.2787C8.48625 16.8075 8.42531 16.8459 8.20219 18.4284L3.63937 53.6016L37.8281 60L56.3559 56.0063C56.3559 55.9716 49.8497 12.0394 49.8159 11.7038ZM35.9184 8.30625C35.0587 8.59031 34.0781 8.87344 33.0216 9.19219V8.55469C33.0528 6.9639 32.8145 5.3793 32.3166 3.86812C34.0491 4.13438 35.2134 6.07781 35.9194 8.30531L35.9184 8.30625ZM30.2297 4.27688C30.795 5.94375 31.0575 7.69875 31.0041 9.45844V9.77719L25.0275 11.6175C26.1975 7.24875 28.3547 5.09062 30.2297 4.27688ZM27.9328 2.12719C28.2864 2.13471 28.6301 2.24515 28.9219 2.445C26.4281 3.60563 23.7919 6.53812 22.6612 12.4078L17.9316 13.8572C19.2656 9.40312 22.3781 2.11875 27.93 2.11875L27.9328 2.12719Z" fill="#95BF47"/>
<path d="M49.2872 11.2096C49.0763 11.1749 44.4403 10.8571 44.4403 10.8571L40.9059 7.32275C40.7747 7.18963 40.5966 7.11369 40.4119 7.11182L37.8319 59.9999L56.3597 56.0062L49.8159 11.7393C49.7947 11.6067 49.7322 11.4842 49.6372 11.3893C49.5423 11.2943 49.4198 11.2318 49.2872 11.2106V11.2096Z" fill="#5E8E3E"/>
<path d="M31.5375 21.4594L29.2369 28.2488C27.8466 27.5756 26.3269 27.2138 24.7819 27.1866C21.1744 27.1866 20.9981 29.4478 20.9981 30.0159C20.9981 33.1078 29.0944 34.2947 29.0944 41.5781C29.0944 47.3063 25.4522 50.9813 20.5631 50.9813C14.6944 50.9813 11.6878 47.3391 11.6878 47.3391L13.2487 42.1359C13.2487 42.1359 16.3237 44.7891 18.9422 44.7891C19.2552 44.801 19.5674 44.7493 19.8598 44.6371C20.1523 44.5249 20.4189 44.3545 20.6436 44.1363C20.8684 43.9181 21.0465 43.6565 21.1672 43.3675C21.2879 43.0785 21.3487 42.7679 21.3459 42.4547C21.3459 38.3859 14.6991 38.2106 14.6991 31.5628C14.6991 25.9734 18.7284 20.5284 26.8247 20.5284C30.0066 20.5753 31.5291 21.4566 31.5291 21.4566L31.5375 21.4594Z" fill="white"/>
</g>
<defs>
<clipPath id="clip0_515_835">
<rect width="60" height="60" fill="white"/>
</clipPath>
</defs>
</svg>
